{
	"nodes":[{
		"name":"Baton - full finish",
		"translation":[-0.07455079257488251,
		-10.513650894165039,
		0.0],
		"rotation":[0.0,
		0.0,
		0.204763725399971,
		0.9788114428520203],
		"scale":[0.20000000298023225,
		0.20000000298023225,
		0.20000000298023225],
		"mesh":0
	}],
	"asset":{
		"version":"2.0",
		"generator":"Created using the official Cinema 4D glTF Exporter 1.000x284978"
	},
	"scenes":[{
		"nodes":[0]
	}],
	"meshes":[{
		"name":"Baton - full finish",
		"primitives":[{
			"attributes":{
				"POSITION":1,
				"NORMAL":2,
				"TEXCOORD_0":3
			},
			"indices":0
		}]
	}],
	"accessors":[{
		"bufferView":0,
		"type":"SCALAR",
		"componentType":5123,
		"count":231984,
		"byteOffset":0,
		"min":[0],
		"max":[41454]
	},
	{
		"bufferView":1,
		"type":"VEC3",
		"componentType":5126,
		"count":41455,
		"byteOffset":0,
		"min":[-268.8340759277344,
		-483.7030029296875,
		-45.23655700683594],
		"max":[81.78978729248047,
		828.655517578125,
		45.23655700683594]
	},
	{
		"bufferView":1,
		"type":"VEC3",
		"componentType":5126,
		"count":41455,
		"byteOffset":12,
		"min":[-1.0,
		-1.0,
		-1.0],
		"max":[1.0,
		1.0,
		1.0]
	},
	{
		"bufferView":1,
		"type":"VEC2",
		"componentType":5126,
		"count":41455,
		"byteOffset":24,
		"min":[0.0,
		0.0],
		"max":[1.0,
		1.0]
	}],
	"bufferViews":[{
		"buffer":0,
		"byteOffset":0,
		"byteLength":463968,
		"target":34963
	},
	{
		"buffer":0,
		"byteOffset":463968,
		"byteLength":1326560,
		"target":34962,
		"byteStride":32
	}],
	"buffers":[{
		"uri":"data:application/octet-stream;base64,",
		"byteLength":1790528
	}]
}