{
	"cameras":[{
		"type":"perspective",
		"perspective":{
			"znear":0.009999999776482582,
			"zfar":10000000000.0,
			"aspectRatio":1.7777777910232545,
			"yfov":0.5483348965644836
		}
	}],
	"nodes":[{
		"name":"OctaneCamera",
		"translation":[587.8222045898438,
		154.4617156982422,
		8.331096649169922],
		"rotation":[0.09362950921058655,
		-0.6988659501075745,
		-0.09308397769927979,
		-0.7029617428779602],
		"scale":[1.0,
		1.0,
		1.0],
		"camera":0
	},
	{
		"name":"final cube",
		"translation":[0.0,
		0.0,
		2.772907018661499],
		"rotation":[0.0,
		-0.3242025375366211,
		0.0,
		-0.9459877014160156],
		"scale":[1.0,
		1.0,
		1.0],
		"children":[2,
		8]
	},
	{
		"name":"final cube",
		"translation":[-18.70130157470703,
		-72.73677825927735,
		-13.678007125854493],
		"rotation":[0.0,
		0.0,
		0.0,
		-1.0],
		"scale":[1.0,
		1.0,
		1.0],
		"children":[3]
	},
	{
		"name":"dents",
		"translation":[23.459001541137697,
		0.0,
		4.44120454788208],
		"rotation":[0.0,
		-0.0003015521797351539,
		0.0,
		0.9999999403953552],
		"scale":[1.0,
		1.0,
		1.0],
		"children":[4,
		7]
	},
	{
		"name":"Subdivision Surface",
		"translation":[-570.0836181640625,
		0.0,
		-4.097385406494141],
		"rotation":[0.0,
		-0.0003015521797351539,
		0.0,
		-0.9999999403953552],
		"scale":[1.0,
		1.0,
		1.0],
		"children":[5]
	},
	{
		"name":"Volume Mesher Instance",
		"translation":[585.4917602539063,
		-1.353015661239624,
		5.0],
		"rotation":[0.0,
		0.0,
		0.0,
		-1.0],
		"scale":[1.0,
		1.0,
		1.0],
		"children":[6]
	},
	{
		"name":"Polygon",
		"translation":[-37.98189926147461,
		-1.4210854715202005e-14,
		-8.881784197001253e-16],
		"rotation":[0.0,
		-2.7755575615628916e-17,
		0.0,
		-1.0],
		"scale":[1.0,
		1.0,
		1.0],
		"mesh":0
	},
	{
		"name":"Cube",
		"translation":[-10.779813766479493,
		89.4589614868164,
		5.551115123125783e-16],
		"rotation":[0.0,
		-2.7755575615628916e-17,
		0.0,
		-1.0],
		"scale":[1.0,
		1.0,
		1.0],
		"mesh":1
	},
	{
		"name":"rings.1",
		"translation":[-6.505775451660156,
		72.73677825927735,
		-9.057516098022461],
		"rotation":[0.0,
		0.0,
		0.0,
		-1.0],
		"scale":[1.0,
		1.0,
		1.0],
		"children":[9,
		10,
		11,
		12]
	},
	{
		"name":"Torus.3",
		"translation":[-93.74732208251953,
		-0.20083746314048768,
		95.13272857666016],
		"rotation":[0.6641509532928467,
		-0.2522127628326416,
		-0.2524441182613373,
		-0.656935453414917],
		"scale":[1.0,
		1.0,
		1.0],
		"mesh":2
	},
	{
		"name":"Torus.2",
		"translation":[95.08778381347656,
		-0.05804620310664177,
		-94.95574951171875],
		"rotation":[0.6484599709510803,
		-0.22586797177791596,
		-0.24147050082683564,
		-0.6856933236122131],
		"scale":[1.0,
		1.0,
		1.0],
		"mesh":3
	},
	{
		"name":"Torus.1",
		"translation":[95.45863342285156,
		0.12184662371873856,
		94.18375396728516],
		"rotation":[-0.31224876642227175,
		0.6344294548034668,
		0.6344294548034668,
		0.31224876642227175],
		"scale":[1.0,
		1.0,
		1.0],
		"mesh":4
	},
	{
		"name":"Torus",
		"translation":[-94.48945617675781,
		0.06671635061502457,
		-94.42694091796875],
		"rotation":[-0.26960715651512148,
		0.6536910533905029,
		0.6363195180892944,
		0.30837881565093996],
		"scale":[1.0,
		1.0,
		1.0],
		"mesh":5
	}],
	"asset":{
		"version":"2.0",
		"generator":"Created using the official Cinema 4D glTF Exporter 1.000x284978"
	},
	"scenes":[{
		"nodes":[0,
		1]
	}],
	"materials":[{
		"pbrMetallicRoughness":{
			"baseColorFactor":[0.9647058823529412,
			0.9647058823529412,
			0.9647058823529412,
			1.0],
			"metallicFactor":0.0,
			"roughnessFactor":0.5
		},
		"emissiveFactor":[0.0,
		0.0,
		0.0],
		"alphaMode":"OPAQUE",
		"doubleSided":false,
		"name":"F6F6F6"
	}],
	"meshes":[{
		"name":"Polygon",
		"primitives":[{
			"attributes":{
				"POSITION":3,
				"NORMAL":4,
				"TEXCOORD_0":5
			},
			"indices":2
		}]
	},
	{
		"name":"Cube",
		"primitives":[{
			"attributes":{
				"POSITION":7,
				"NORMAL":8,
				"TEXCOORD_0":9
			},
			"indices":6,
			"material":0
		}]
	},
	{
		"name":"Torus.3",
		"primitives":[{
			"attributes":{
				"POSITION":11,
				"NORMAL":12,
				"TEXCOORD_0":13
			},
			"indices":10,
			"material":0
		}]
	},
	{
		"name":"Torus.2",
		"primitives":[{
			"attributes":{
				"POSITION":15,
				"NORMAL":16,
				"TEXCOORD_0":17
			},
			"indices":14,
			"material":0
		}]
	},
	{
		"name":"Torus.1",
		"primitives":[{
			"attributes":{
				"POSITION":19,
				"NORMAL":20,
				"TEXCOORD_0":21
			},
			"indices":18,
			"material":0
		}]
	},
	{
		"name":"Torus",
		"primitives":[{
			"attributes":{
				"POSITION":23,
				"NORMAL":24,
				"TEXCOORD_0":25
			},
			"indices":22,
			"material":0
		}]
	}],
	"accessors":[{
		"min":[0.0],
		"bufferView":0,
		"type":"SCALAR",
		"componentType":5126,
		"count":5,
		"byteOffset":0,
		"max":[12.0]
	},
	{
		"min":[0.0,
		-1.0,
		0.0,
		-1.0],
		"bufferView":0,
		"type":"VEC4",
		"componentType":5126,
		"count":5,
		"byteOffset":20,
		"max":[0.0,
		0.0,
		0.0,
		1.0]
	},
	{
		"min":[0],
		"bufferView":1,
		"type":"SCALAR",
		"componentType":5123,
		"count":34542,
		"byteOffset":0,
		"max":[12196]
	},
	{
		"min":[-88.2684097290039,
		26.80206871032715,
		-100.62589263916016],
		"bufferView":2,
		"type":"VEC3",
		"componentType":5126,
		"count":12197,
		"byteOffset":0,
		"max":[111.85227966308594,
		154.81983947753907,
		99.49486541748047]
	},
	{
		"min":[-0.9999989867210388,
		-0.9986279010772705,
		-0.9999999403953552],
		"bufferView":2,
		"type":"VEC3",
		"componentType":5126,
		"count":12197,
		"byteOffset":12,
		"max":[1.0,
		1.0,
		0.999994695186615]
	},
	{
		"min":[-0.4561847150325775,
		0.055224478244781497],
		"bufferView":2,
		"type":"VEC2",
		"componentType":5126,
		"count":12197,
		"byteOffset":24,
		"max":[1.6981563568115235,
		0.6781786680221558]
	},
	{
		"min":[0],
		"bufferView":3,
		"type":"SCALAR",
		"componentType":5123,
		"count":93471,
		"byteOffset":0,
		"max":[23624]
	},
	{
		"min":[-99.99949645996094,
		-64.00973510742188,
		-100.00019836425781],
		"bufferView":4,
		"type":"VEC3",
		"componentType":5126,
		"count":23625,
		"byteOffset":0,
		"max":[100.00050354003906,
		64.00773620605469,
		99.99980163574219]
	},
	{
		"min":[-1.0,
		-1.0,
		-1.0],
		"bufferView":4,
		"type":"VEC3",
		"componentType":5126,
		"count":23625,
		"byteOffset":12,
		"max":[1.0,
		1.0,
		1.0]
	},
	{
		"min":[-7.450580596923828e-9,
		-4.111797563877465e-16],
		"bufferView":4,
		"type":"VEC2",
		"componentType":5126,
		"count":23625,
		"byteOffset":24,
		"max":[1.0,
		1.0]
	},
	{
		"min":[0],
		"bufferView":5,
		"type":"SCALAR",
		"componentType":5123,
		"count":9504,
		"byteOffset":0,
		"max":[1674]
	},
	{
		"min":[-5.940752983093262,
		-0.812791645526886,
		-5.934024333953857],
		"bufferView":6,
		"type":"VEC3",
		"componentType":5126,
		"count":1675,
		"byteOffset":0,
		"max":[5.940752983093262,
		0.812791645526886,
		5.934024333953857]
	},
	{
		"min":[-1.0,
		-0.9999978542327881,
		-0.998867392539978],
		"bufferView":6,
		"type":"VEC3",
		"componentType":5126,
		"count":1675,
		"byteOffset":12,
		"max":[1.0,
		0.9999978542327881,
		0.998867392539978]
	},
	{
		"min":[0.0,
		0.0],
		"bufferView":6,
		"type":"VEC2",
		"componentType":5126,
		"count":1675,
		"byteOffset":24,
		"max":[1.0,
		1.0]
	},
	{
		"min":[0],
		"bufferView":7,
		"type":"SCALAR",
		"componentType":5123,
		"count":9504,
		"byteOffset":0,
		"max":[1674]
	},
	{
		"min":[-5.940752983093262,
		-0.812791645526886,
		-5.934024333953857],
		"bufferView":8,
		"type":"VEC3",
		"componentType":5126,
		"count":1675,
		"byteOffset":0,
		"max":[5.940752983093262,
		0.812791645526886,
		5.934024333953857]
	},
	{
		"min":[-1.0,
		-0.9999978542327881,
		-0.998867392539978],
		"bufferView":8,
		"type":"VEC3",
		"componentType":5126,
		"count":1675,
		"byteOffset":12,
		"max":[1.0,
		0.9999978542327881,
		0.998867392539978]
	},
	{
		"min":[0.0,
		0.0],
		"bufferView":8,
		"type":"VEC2",
		"componentType":5126,
		"count":1675,
		"byteOffset":24,
		"max":[1.0,
		1.0]
	},
	{
		"min":[0],
		"bufferView":9,
		"type":"SCALAR",
		"componentType":5123,
		"count":9504,
		"byteOffset":0,
		"max":[1674]
	},
	{
		"min":[-5.940752983093262,
		-0.812791645526886,
		-5.934024333953857],
		"bufferView":10,
		"type":"VEC3",
		"componentType":5126,
		"count":1675,
		"byteOffset":0,
		"max":[5.940752983093262,
		0.812791645526886,
		5.934024333953857]
	},
	{
		"min":[-1.0,
		-0.9999978542327881,
		-0.998867392539978],
		"bufferView":10,
		"type":"VEC3",
		"componentType":5126,
		"count":1675,
		"byteOffset":12,
		"max":[1.0,
		0.9999978542327881,
		0.998867392539978]
	},
	{
		"min":[0.0,
		0.0],
		"bufferView":10,
		"type":"VEC2",
		"componentType":5126,
		"count":1675,
		"byteOffset":24,
		"max":[1.0,
		1.0]
	},
	{
		"min":[0],
		"bufferView":11,
		"type":"SCALAR",
		"componentType":5123,
		"count":9504,
		"byteOffset":0,
		"max":[1674]
	},
	{
		"min":[-5.940752983093262,
		-0.812791645526886,
		-5.934024333953857],
		"bufferView":12,
		"type":"VEC3",
		"componentType":5126,
		"count":1675,
		"byteOffset":0,
		"max":[5.940752983093262,
		0.812791645526886,
		5.934024333953857]
	},
	{
		"min":[-1.0,
		-0.9999978542327881,
		-0.998867392539978],
		"bufferView":12,
		"type":"VEC3",
		"componentType":5126,
		"count":1675,
		"byteOffset":12,
		"max":[1.0,
		0.9999978542327881,
		0.998867392539978]
	},
	{
		"min":[0.0,
		0.0],
		"bufferView":12,
		"type":"VEC2",
		"componentType":5126,
		"count":1675,
		"byteOffset":24,
		"max":[1.0,
		1.0]
	}],
	"bufferViews":[{
		"buffer":0,
		"byteOffset":0,
		"byteLength":100
	},
	{
		"buffer":1,
		"byteOffset":0,
		"byteLength":69084,
		"target":34963
	},
	{
		"buffer":1,
		"byteOffset":69084,
		"byteLength":390304,
		"target":34962,
		"byteStride":32
	},
	{
		"buffer":2,
		"byteOffset":0,
		"byteLength":186942,
		"target":34963
	},
	{
		"buffer":2,
		"byteOffset":186944,
		"byteLength":756000,
		"target":34962,
		"byteStride":32
	},
	{
		"buffer":3,
		"byteOffset":0,
		"byteLength":19008,
		"target":34963
	},
	{
		"buffer":3,
		"byteOffset":19008,
		"byteLength":53600,
		"target":34962,
		"byteStride":32
	},
	{
		"buffer":4,
		"byteOffset":0,
		"byteLength":19008,
		"target":34963
	},
	{
		"buffer":4,
		"byteOffset":19008,
		"byteLength":53600,
		"target":34962,
		"byteStride":32
	},
	{
		"buffer":5,
		"byteOffset":0,
		"byteLength":19008,
		"target":34963
	},
	{
		"buffer":5,
		"byteOffset":19008,
		"byteLength":53600,
		"target":34962,
		"byteStride":32
	},
	{
		"buffer":6,
		"byteOffset":0,
		"byteLength":19008,
		"target":34963
	},
	{
		"buffer":6,
		"byteOffset":19008,
		"byteLength":53600,
		"target":34962,
		"byteStride":32
	}],
	"animations":[{
		"samplers":[{
			"input":0,
			"interpolation":"LINEAR",
			"output":1
		}],
		"channels":[{
			"sampler":0,
			"target":{
				"node":1,
				"path":"rotation"
			}
		}]
	}],
	"buffers":[{
		"uri":"data:application/octet-stream;base64,",
		"byteLength":100
	},
	{
		"uri":"data:application/octet-stream;base64,",
		"byteLength":459388
	},
	{
		"uri":"data:application/octet-stream;base64,",
		"byteLength":942944
	},
	{
		"uri":"data:application/octet-stream;base64,",
		"byteLength":72608
	},
	{
		"uri":"data:application/octet-stream;base64,",
		"byteLength":72608
	},
	{
		"uri":"data:application/octet-stream;base64,",
		"byteLength":72608
	},
	{
		"uri":"data:application/octet-stream;base64,",
		"byteLength":72608
	}]
}