{
	"materials":[{
		"pbrMetallicRoughness":{
			"baseColorTexture":{
				"index":0
			},
			"baseColorFactor":[0.8,
			0.8,
			0.8,
			1.0],
			"metallicFactor":1.0,
			"roughnessFactor":1.0
		},
		"normalTexture":{
			"index":1,
			"scale":0.3
		},
		"emissiveFactor":[0.0,
		0.0,
		0.0],
		"alphaMode":"OPAQUE",
		"doubleSided":true,
		"name":"Mat"
	}],
	"asset":{
		"version":"2.0",
		"generator":"Created using the official Cinema 4D glTF Exporter 1.000x284978"
	},
	"images":[{
		"uri":"data:image/jpeg;base64,"
	},
	{
		"uri":"data:image/jpeg;base64,"
	}],
	"scenes":[{
		"nodes":[0]
	}],
	"nodes":[{
		"scale":[1.0,
		1.0,
		1.0],
		"name":"rock",
		"translation":[0.0,
		0.0,
		0.0],
		"rotation":[0.0,
		-0.713250458240509,
		0.0,
		-0.7009092569351196],
		"children":[1]
	},
	{
		"scale":[0.8399999737739563,
		0.8399999737739563,
		0.8399999737739563],
		"name":"Sphere",
		"translation":[0.0,
		310.0129699707031,
		0.0],
		"rotation":[-0.028311539441347123,
		-0.1052311435341835,
		0.2369297593832016,
		-0.9653958678245544],
		"mesh":0
	}],
	"meshes":[{
		"name":"Sphere",
		"primitives":[{
			"attributes":{
				"POSITION":1,
				"NORMAL":2,
				"TEXCOORD_0":3
			},
			"indices":0,
			"material":0
		}]
	}],
	"accessors":[{
		"count":118800,
		"bufferView":0,
		"type":"SCALAR",
		"componentType":5123,
		"byteOffset":0,
		"min":[0],
		"max":[20513]
	},
	{
		"count":20514,
		"bufferView":1,
		"type":"VEC3",
		"componentType":5126,
		"byteOffset":0,
		"min":[-391.36444091796877,
		-379.640869140625,
		-381.24615478515627],
		"max":[410.1182556152344,
		416.792236328125,
		421.94158935546877]
	},
	{
		"count":20514,
		"bufferView":1,
		"type":"VEC3",
		"componentType":5126,
		"byteOffset":12,
		"min":[-0.9991831183433533,
		-0.9976751804351807,
		-0.9973680377006531],
		"max":[0.9990761876106262,
		0.9816130995750427,
		0.9951605200767517]
	},
	{
		"count":20514,
		"bufferView":1,
		"type":"VEC2",
		"componentType":5126,
		"byteOffset":24,
		"min":[0.0,
		0.0],
		"max":[1.0,
		1.0]
	}],
	"bufferViews":[{
		"buffer":0,
		"byteOffset":0,
		"byteLength":237600,
		"target":34963
	},
	{
		"buffer":0,
		"byteOffset":237600,
		"byteLength":656448,
		"target":34962,
		"byteStride":32
	}],
	"buffers":[{
		"uri":"data:application/octet-stream;base64,",
		"byteLength":894048
	}],
	"samplers":[{
		"magFilter":9729,
		"minFilter":9729,
		"wrapS":10497,
		"wrapT":10497
	},
	{
		"magFilter":9729,
		"minFilter":9729,
		"wrapS":10497,
		"wrapT":10497
	}],
	"textures":[{
		"sampler":0,
		"source":0
	},
	{
		"sampler":1,
		"source":1
	}]
}