{
	"nodes":[{
		"name":"Metal Barrier",
		"translation":[0.26093846559524538,
		0.0,
		0.0],
		"rotation":[0.0,
		0.0,
		0.0,
		-1.0],
		"scale":[1.0,
		1.0,
		1.0],
		"children":[1]
	},
	{
		"name":"Sketchfab_model",
		"translation":[3960.049072265625,
		0.0,
		0.0],
		"rotation":[0.7071067690849304,
		0.0,
		0.0,
		-0.7071067690849304],
		"scale":[1.0,
		1.0,
		1.0],
		"children":[2]
	},
	{
		"name":"e3680414332b451a9a54c4663b7d5b00.obj.cleaner.materialmerger.gles",
		"children":[3]
	},
	{
		"name":"Object_0",
		"mesh":0
	}],
	"asset":{
		"version":"2.0",
		"generator":"Created using the official Cinema 4D glTF Exporter 1.000x284978"
	},
	"images":[{
		"uri":"data:image/jpeg;base64,"
	}],
	"scenes":[{
		"nodes":[0]
	}],
	"materials":[{
		"pbrMetallicRoughness":{
			"baseColorTexture":{
				"index":0
			},
			"baseColorFactor":[1.0,
			1.0,
			1.0,
			1.0],
			"metallicFactor":1.0,
			"roughnessFactor":1.0
		},
		"emissiveFactor":[0.0,
		0.0,
		0.0],
		"alphaMode":"OPAQUE",
		"doubleSided":true,
		"name":"defaultMat.1"
	}],
	"meshes":[{
		"name":"Object_0",
		"primitives":[{
			"attributes":{
				"POSITION":1,
				"NORMAL":2,
				"TEXCOORD_0":3
			},
			"indices":0,
			"material":0
		}]
	}],
	"accessors":[{
		"bufferView":0,
		"type":"SCALAR",
		"componentType":5123,
		"count":11244,
		"byteOffset":0,
		"min":[0],
		"max":[2876]
	},
	{
		"bufferView":1,
		"type":"VEC3",
		"componentType":5126,
		"count":2877,
		"byteOffset":0,
		"min":[-5486.91162109375,
		-562.97119140625,
		0.4275340139865875],
		"max":[-1935.1263427734376,
		568.0724487304688,
		2049.862548828125]
	},
	{
		"bufferView":1,
		"type":"VEC3",
		"componentType":5126,
		"count":2877,
		"byteOffset":12,
		"min":[-1.0000313520431519,
		-1.0,
		-1.0],
		"max":[0.9999688267707825,
		0.9999688267707825,
		1.0000313520431519]
	},
	{
		"bufferView":1,
		"type":"VEC2",
		"componentType":5126,
		"count":2877,
		"byteOffset":24,
		"min":[0.0019499999471008778,
		0.0019499999471008778],
		"max":[0.4755899906158447,
		0.998039960861206]
	}],
	"bufferViews":[{
		"buffer":0,
		"byteOffset":0,
		"byteLength":22488,
		"target":34963
	},
	{
		"buffer":0,
		"byteOffset":22488,
		"byteLength":92064,
		"target":34962,
		"byteStride":32
	}],
	"buffers":[{
		"uri":"data:application/octet-stream;base64,",
		"byteLength":114552
	}],
	"samplers":[{
		"magFilter":9729,
		"minFilter":9729,
		"wrapS":10497,
		"wrapT":10497
	}],
	"textures":[{
		"sampler":0,
		"source":0
	}]
}