{
	"nodes":[{
		"name":"Metal Barrier",
		"translation":[25.359647750854493,
		-59.86873245239258,
		2.0752577781677248],
		"rotation":[0.0,
		0.0,
		0.0,
		-1.0],
		"scale":[0.07500000298023224,
		0.07500000298023224,
		0.07500000298023224],
		"children":[1]
	},
	{
		"name":"Sketchfab_model",
		"translation":[3574.473388671875,
		0.0,
		0.0],
		"rotation":[0.7071067690849304,
		0.0,
		0.0,
		-0.7071067690849304],
		"scale":[1.0,
		1.0,
		1.0],
		"children":[2]
	},
	{
		"name":"e3680414332b451a9a54c4663b7d5b00.obj.cleaner.materialmerger.gles",
		"children":[3]
	},
	{
		"name":"Object_0",
		"mesh":0
	}],
	"asset":{
		"version":"2.0",
		"generator":"Created using the official Cinema 4D glTF Exporter 1.000x284978"
	},
	"scenes":[{
		"nodes":[0]
	}],
	"meshes":[{
		"name":"Object_0",
		"primitives":[{
			"attributes":{
				"POSITION":1,
				"NORMAL":2,
				"TEXCOORD_0":3
			},
			"indices":0
		}]
	}],
	"accessors":[{
		"bufferView":0,
		"type":"SCALAR",
		"componentType":5123,
		"count":11244,
		"byteOffset":0,
		"min":[0],
		"max":[2876]
	},
	{
		"bufferView":1,
		"type":"VEC3",
		"componentType":5126,
		"count":2877,
		"byteOffset":0,
		"min":[-5486.91162109375,
		-562.97119140625,
		0.4275340139865875],
		"max":[-1935.1263427734376,
		568.0724487304688,
		2049.862548828125]
	},
	{
		"bufferView":1,
		"type":"VEC3",
		"componentType":5126,
		"count":2877,
		"byteOffset":12,
		"min":[-1.0000313520431519,
		-1.0,
		-1.0],
		"max":[0.9999688267707825,
		0.9999688267707825,
		1.0000313520431519]
	},
	{
		"bufferView":1,
		"type":"VEC2",
		"componentType":5126,
		"count":2877,
		"byteOffset":24,
		"min":[0.0019499999471008778,
		0.0019499999471008778],
		"max":[0.4755899906158447,
		0.998039960861206]
	}],
	"bufferViews":[{
		"buffer":0,
		"byteOffset":0,
		"byteLength":22488,
		"target":34963
	},
	{
		"buffer":0,
		"byteOffset":22488,
		"byteLength":92064,
		"target":34962,
		"byteStride":32
	}],
	"buffers":[{
		"uri":"data:application/octet-stream;base64,",
		"byteLength":114552
	}]
}