{
	"nodes":[{
		"name":"Metal Detector",
		"translation":[20.258121490478517,
		-73.54290771484375,
		-0.8763000965118408],
		"rotation":[0.0,
		0.0,
		0.0,
		-1.0],
		"scale":[0.05999999865889549,
		0.05999999865889549,
		0.05999999865889549],
		"children":[1]
	},
	{
		"name":"Sketchfab_model",
		"translation":[578.1304931640625,
		0.0,
		3206.394287109375],
		"rotation":[0.7071067690849304,
		0.0,
		0.0,
		-0.7071067690849304],
		"scale":[1.0,
		1.0,
		1.0],
		"children":[2]
	},
	{
		"name":"2259e3322bd34bac8a9ca80341c9639b.fbx",
		"translation":[0.0,
		0.0,
		0.0],
		"rotation":[-0.7071067690849304,
		0.0,
		0.0,
		-0.7071067690849304],
		"scale":[1.0,
		1.0,
		1.0],
		"children":[3]
	},
	{
		"name":"RootNode",
		"children":[4]
	},
	{
		"name":"MetalDetector",
		"children":[5]
	},
	{
		"name":"MetalDetector_M_MetalDetector_0",
		"translation":[-650.837158203125,
		-53.69709014892578,
		-3216.025634765625],
		"rotation":[0.0,
		0.0,
		0.0,
		-1.0],
		"scale":[1.0,
		1.0,
		1.0],
		"mesh":0
	}],
	"asset":{
		"version":"2.0",
		"generator":"Created using the official Cinema 4D glTF Exporter 1.000x284978"
	},
	"scenes":[{
		"nodes":[0]
	}],
	"meshes":[{
		"name":"MetalDetector_M_MetalDetector_0",
		"primitives":[{
			"attributes":{
				"POSITION":1,
				"NORMAL":2,
				"TEXCOORD_0":3
			},
			"indices":0
		}]
	}],
	"accessors":[{
		"bufferView":0,
		"type":"SCALAR",
		"componentType":5123,
		"count":13146,
		"byteOffset":0,
		"min":[0],
		"max":[5237]
	},
	{
		"bufferView":1,
		"type":"VEC3",
		"componentType":5126,
		"count":5238,
		"byteOffset":0,
		"min":[-702.2886352539063,
		0.0,
		-489.3349609375],
		"max":[702.2886352539063,
		3376.9912109375,
		489.3349609375]
	},
	{
		"bufferView":1,
		"type":"VEC3",
		"componentType":5126,
		"count":5238,
		"byteOffset":12,
		"min":[-1.0000313520431519,
		-1.0000313520431519,
		-1.0],
		"max":[1.0,
		1.0,
		1.0000313520431519]
	},
	{
		"bufferView":1,
		"type":"VEC2",
		"componentType":5126,
		"count":5238,
		"byteOffset":24,
		"min":[0.0019920316990464927,
		0.0018443178851157427],
		"max":[0.9951215386390686,
		0.987220048904419]
	}],
	"bufferViews":[{
		"buffer":0,
		"byteOffset":0,
		"byteLength":26292,
		"target":34963
	},
	{
		"buffer":0,
		"byteOffset":26292,
		"byteLength":167616,
		"target":34962,
		"byteStride":32
	}],
	"buffers":[{
		"uri":"data:application/octet-stream;base64,",
		"byteLength":193908
	}]
}