{
	"nodes":[{
		"name":"Metal Detector",
		"children":[1]
	},
	{
		"name":"Sketchfab_model",
		"translation":[0.0,
		0.0,
		0.0],
		"rotation":[0.7071067690849304,
		0.0,
		0.0,
		-0.7071067690849304],
		"scale":[1.0,
		1.0,
		1.0],
		"children":[2]
	},
	{
		"name":"2259e3322bd34bac8a9ca80341c9639b.fbx",
		"translation":[0.0,
		0.0,
		0.0],
		"rotation":[-0.7071067690849304,
		0.0,
		0.0,
		-0.7071067690849304],
		"scale":[1.0,
		1.0,
		1.0],
		"children":[3]
	},
	{
		"name":"RootNode",
		"children":[4]
	},
	{
		"name":"MetalDetector",
		"children":[5]
	},
	{
		"name":"MetalDetector_M_MetalDetector_0",
		"mesh":0
	}],
	"asset":{
		"version":"2.0",
		"generator":"Created using the official Cinema 4D glTF Exporter 1.000x284978"
	},
	"images":[{
		"uri":"data:image/jpeg;base64,"
	},
	{
		"uri":"data:image/jpeg;base64,"
	}],
	"scenes":[{
		"nodes":[0]
	}],
	"materials":[{
		"pbrMetallicRoughness":{
			"baseColorTexture":{
				"index":0
			},
			"baseColorFactor":[1.0,
			1.0,
			1.0,
			1.0],
			"metallicFactor":1.0,
			"roughnessFactor":1.0
		},
		"normalTexture":{
			"index":1,
			"scale":1.0
		},
		"emissiveFactor":[0.0,
		0.0,
		0.0],
		"alphaMode":"OPAQUE",
		"doubleSided":true,
		"name":"M_MetalDetector"
	}],
	"meshes":[{
		"name":"MetalDetector_M_MetalDetector_0",
		"primitives":[{
			"attributes":{
				"POSITION":1,
				"NORMAL":2,
				"TEXCOORD_0":3
			},
			"indices":0,
			"material":0
		}]
	}],
	"accessors":[{
		"bufferView":0,
		"type":"SCALAR",
		"componentType":5123,
		"count":13146,
		"byteOffset":0,
		"min":[0],
		"max":[5237]
	},
	{
		"bufferView":1,
		"type":"VEC3",
		"componentType":5126,
		"count":5238,
		"byteOffset":0,
		"min":[-702.2886352539063,
		0.0,
		-489.3349609375],
		"max":[702.2886352539063,
		3376.9912109375,
		489.3349609375]
	},
	{
		"bufferView":1,
		"type":"VEC3",
		"componentType":5126,
		"count":5238,
		"byteOffset":12,
		"min":[-1.0000313520431519,
		-1.0000313520431519,
		-1.0],
		"max":[1.0,
		1.0,
		1.0000313520431519]
	},
	{
		"bufferView":1,
		"type":"VEC2",
		"componentType":5126,
		"count":5238,
		"byteOffset":24,
		"min":[0.0019920316990464927,
		0.0018443178851157427],
		"max":[0.9951215386390686,
		0.987220048904419]
	}],
	"bufferViews":[{
		"buffer":0,
		"byteOffset":0,
		"byteLength":26292,
		"target":34963
	},
	{
		"buffer":0,
		"byteOffset":26292,
		"byteLength":167616,
		"target":34962,
		"byteStride":32
	}],
	"buffers":[{
		"uri":"data:application/octet-stream;base64,",
		"byteLength":193908
	}],
	"samplers":[{
		"magFilter":9729,
		"minFilter":9729,
		"wrapS":10497,
		"wrapT":10497
	},
	{
		"magFilter":9729,
		"minFilter":9729,
		"wrapS":10497,
		"wrapT":10497
	}],
	"textures":[{
		"sampler":0,
		"source":0
	},
	{
		"sampler":1,
		"source":1
	}]
}