{
	"nodes":[{
		"name":"10014 - M84 Stun Grenade",
		"translation":[0.0,
		-96.70840454101563,
		0.0],
		"rotation":[0.0,
		0.0,
		0.0,
		-1.0],
		"scale":[100.0,
		100.0,
		100.0],
		"children":[1]
	},
	{
		"name":"Sketchfab_model",
		"translation":[-0.00019376404816284776,
		1.6772040762156487e-19,
		-0.0007553455652669072],
		"rotation":[-0.7071049213409424,
		0.0016211399342864752,
		0.0016211399342864752,
		0.7071049213409424],
		"scale":[1.0,
		1.0,
		1.0],
		"children":[2]
	},
	{
		"name":"7b418496e32d4be3bbf22be5fc69d2b8.fbx",
		"translation":[0.0,
		0.0,
		0.0],
		"rotation":[-0.7071067690849304,
		0.0,
		0.0,
		-0.7071067690849304],
		"scale":[0.009999999776482582,
		0.009999999776482582,
		0.009999999776482582],
		"children":[3]
	},
	{
		"name":"RootNode",
		"children":[4]
	},
	{
		"name":"M84_Stun_Grenade",
		"translation":[36.74748992919922,
		124.9999771118164,
		0.00004722632002085447],
		"rotation":[0.0,
		0.0,
		0.0,
		-1.0],
		"scale":[1.0,
		1.0,
		1.0],
		"children":[5,
		7,
		9,
		11]
	},
	{
		"name":"mesh_StunGrenade_SecondaryPin",
		"children":[6]
	},
	{
		"name":"mesh_StunGrenade_SecondaryPin_material_stunGrenade_0",
		"mesh":0
	},
	{
		"name":"mesh_StunGrenade_Handle",
		"children":[8]
	},
	{
		"name":"mesh_StunGrenade_Handle_material_stunGrenade_0",
		"mesh":1
	},
	{
		"name":"mesh_StunGrenade_Body",
		"children":[10]
	},
	{
		"name":"mesh_StunGrenade_Body_material_stunGrenade_0",
		"mesh":2
	},
	{
		"name":"mesh_StunGrenade_SafetyPin",
		"children":[12]
	},
	{
		"name":"mesh_StunGrenade_SafetyPin_material_stunGrenade_0",
		"mesh":3
	}],
	"asset":{
		"version":"2.0",
		"generator":"Created using the official Cinema 4D glTF Exporter 1.000x284978"
	},
	"scenes":[{
		"nodes":[0]
	}],
	"meshes":[{
		"name":"mesh_StunGrenade_SecondaryPin_material_stunGrenade_0",
		"primitives":[{
			"attributes":{
				"POSITION":1,
				"NORMAL":2,
				"TEXCOORD_0":3
			},
			"indices":0
		}]
	},
	{
		"name":"mesh_StunGrenade_Handle_material_stunGrenade_0",
		"primitives":[{
			"attributes":{
				"POSITION":5,
				"NORMAL":6,
				"TEXCOORD_0":7
			},
			"indices":4
		}]
	},
	{
		"name":"mesh_StunGrenade_Body_material_stunGrenade_0",
		"primitives":[{
			"attributes":{
				"POSITION":9,
				"NORMAL":10,
				"TEXCOORD_0":11
			},
			"indices":8
		}]
	},
	{
		"name":"mesh_StunGrenade_SafetyPin_material_stunGrenade_0",
		"primitives":[{
			"attributes":{
				"POSITION":13,
				"NORMAL":14,
				"TEXCOORD_0":15
			},
			"indices":12
		}]
	}],
	"accessors":[{
		"bufferView":0,
		"type":"SCALAR",
		"componentType":5123,
		"count":4200,
		"byteOffset":0,
		"min":[0],
		"max":[875]
	},
	{
		"bufferView":1,
		"type":"VEC3",
		"componentType":5126,
		"count":876,
		"byteOffset":0,
		"min":[-101.54188537597656,
		42.47538375854492,
		-56.481998443603519],
		"max":[-12.398590087890625,
		90.94803619384766,
		6.338585376739502]
	},
	{
		"bufferView":1,
		"type":"VEC3",
		"componentType":5126,
		"count":876,
		"byteOffset":12,
		"min":[-0.998718798160553,
		-0.9993125200271606,
		-0.9997813105583191],
		"max":[0.9952812790870667,
		0.999093770980835,
		0.9999375343322754]
	},
	{
		"bufferView":1,
		"type":"VEC2",
		"componentType":5126,
		"count":876,
		"byteOffset":24,
		"min":[0.34929603338241579,
		0.002482116222381592],
		"max":[0.9951420426368713,
		0.7660928964614868]
	},
	{
		"bufferView":2,
		"type":"SCALAR",
		"componentType":5123,
		"count":4527,
		"byteOffset":0,
		"min":[0],
		"max":[2388]
	},
	{
		"bufferView":3,
		"type":"VEC3",
		"componentType":5126,
		"count":2389,
		"byteOffset":0,
		"min":[-53.60738754272461,
		-67.12296295166016,
		-28.042905807495118],
		"max":[-19.88759422302246,
		94.69725799560547,
		52.183013916015628]
	},
	{
		"bufferView":3,
		"type":"VEC3",
		"componentType":5126,
		"count":2389,
		"byteOffset":12,
		"min":[-1.0000313520431519,
		-1.0000313520431519,
		-1.0],
		"max":[1.0,
		1.0,
		1.0]
	},
	{
		"bufferView":3,
		"type":"VEC2",
		"componentType":5126,
		"count":2389,
		"byteOffset":24,
		"min":[0.019473254680633546,
		0.0024817585945129396],
		"max":[0.9975067973136902,
		0.9686342477798462]
	},
	{
		"bufferView":4,
		"type":"SCALAR",
		"componentType":5123,
		"count":15174,
		"byteOffset":0,
		"min":[0],
		"max":[6540]
	},
	{
		"bufferView":5,
		"type":"VEC3",
		"componentType":5126,
		"count":6541,
		"byteOffset":0,
		"min":[-68.57621002197266,
		-124.99998474121094,
		-36.7526741027832],
		"max":[-4.918781280517578,
		94.02342987060547,
		38.78408432006836]
	},
	{
		"bufferView":5,
		"type":"VEC3",
		"componentType":5126,
		"count":6541,
		"byteOffset":12,
		"min":[-1.0000313520431519,
		-1.0000313520431519,
		-1.0],
		"max":[1.0,
		1.0,
		1.0000313520431519]
	},
	{
		"bufferView":5,
		"type":"VEC2",
		"componentType":5126,
		"count":6541,
		"byteOffset":24,
		"min":[0.002493143081665039,
		0.002476632595062256],
		"max":[0.993024468421936,
		0.9936933517456055]
	},
	{
		"bufferView":6,
		"type":"SCALAR",
		"componentType":5123,
		"count":6858,
		"byteOffset":0,
		"min":[0],
		"max":[1363]
	},
	{
		"bufferView":7,
		"type":"VEC3",
		"componentType":5126,
		"count":1364,
		"byteOffset":0,
		"min":[-85.36498260498047,
		12.532745361328125,
		-8.270122528076172],
		"max":[-9.108851432800293,
		84.70344543457031,
		64.85787963867188]
	},
	{
		"bufferView":7,
		"type":"VEC3",
		"componentType":5126,
		"count":1364,
		"byteOffset":12,
		"min":[-0.9996875524520874,
		-1.0,
		-0.9993125200271606],
		"max":[0.9996875524520874,
		0.9998125433921814,
		0.9991875290870667]
	},
	{
		"bufferView":7,
		"type":"VEC2",
		"componentType":5126,
		"count":1364,
		"byteOffset":24,
		"min":[0.6709656119346619,
		0.0024761557579040529],
		"max":[0.9947376847267151,
		0.9975239038467407]
	}],
	"bufferViews":[{
		"buffer":0,
		"byteOffset":0,
		"byteLength":8400,
		"target":34963
	},
	{
		"buffer":0,
		"byteOffset":8400,
		"byteLength":28032,
		"target":34962,
		"byteStride":32
	},
	{
		"buffer":1,
		"byteOffset":0,
		"byteLength":9054,
		"target":34963
	},
	{
		"buffer":1,
		"byteOffset":9056,
		"byteLength":76448,
		"target":34962,
		"byteStride":32
	},
	{
		"buffer":2,
		"byteOffset":0,
		"byteLength":30348,
		"target":34963
	},
	{
		"buffer":2,
		"byteOffset":30348,
		"byteLength":209312,
		"target":34962,
		"byteStride":32
	},
	{
		"buffer":3,
		"byteOffset":0,
		"byteLength":13716,
		"target":34963
	},
	{
		"buffer":3,
		"byteOffset":13716,
		"byteLength":43648,
		"target":34962,
		"byteStride":32
	}],
	"buffers":[{
		"uri":"data:application/octet-stream;base64,",
		"byteLength":36432
	},
	{
		"uri":"data:application/octet-stream;base64,",
		"byteLength":85504
	},
	{
		"uri":"data:application/octet-stream;base64,",
		"byteLength":239660
	},
	{
		"uri":"data:application/octet-stream;base64,",
		"byteLength":57364
	}]
}